<mxfile host="Electron" modified="2024-01-20T15:44:36.595Z" agent="Mozilla/5.0 (Windows NT 10.0; Win64; x64) AppleWebKit/537.36 (KHTML, like Gecko) draw.io/22.1.21 Chrome/120.0.6099.109 Electron/28.1.0 Safari/537.36" etag="ZdU0nX0ReBPbJV1pOzGd" version="22.1.21" type="device">
  <diagram name="Seite-1" id="0859eqJFtxkdb-ppz1Cc">
    <mxGraphModel dx="294" dy="224" grid="1" gridSize="10" guides="1" tooltips="1" connect="1" arrows="1" fold="1" page="1" pageScale="1" pageWidth="827" pageHeight="1169" math="1" shadow="0">
      <root>
        <mxCell id="0" />
        <mxCell id="1" parent="0" />
        <mxCell id="y7L2XVppaXTwiacDeEOA-1" value="" style="ellipse;html=1;shape=startState;fillColor=#000000;strokeColor=#000000;" parent="1" vertex="1">
          <mxGeometry x="390" y="60" width="30" height="30" as="geometry" />
        </mxCell>
        <mxCell id="y7L2XVppaXTwiacDeEOA-2" value="" style="edgeStyle=orthogonalEdgeStyle;html=1;verticalAlign=bottom;endArrow=open;endSize=8;strokeColor=#000000;rounded=0;" parent="1" source="y7L2XVppaXTwiacDeEOA-1" edge="1">
          <mxGeometry relative="1" as="geometry">
            <mxPoint x="405" y="310" as="targetPoint" />
          </mxGeometry>
        </mxCell>
        <mxCell id="y7L2XVppaXTwiacDeEOA-3" value="Staubsaugen" style="rounded=1;whiteSpace=wrap;html=1;verticalAlign=top;" parent="1" vertex="1">
          <mxGeometry x="90" y="120" width="630" height="830" as="geometry" />
        </mxCell>
        <mxCell id="y7L2XVppaXTwiacDeEOA-4" value="" style="ellipse;html=1;shape=endState;fillColor=#000000;strokeColor=#000000;" parent="1" vertex="1">
          <mxGeometry x="390" y="1042" width="30" height="30" as="geometry" />
        </mxCell>
        <mxCell id="XW-WU_22F0h-9LoVDFOd-1" value="" style="ellipse;html=1;shape=startState;fillColor=#000000;strokeColor=#000000;" vertex="1" parent="1">
          <mxGeometry x="391" y="187" width="30" height="30" as="geometry" />
        </mxCell>
        <mxCell id="XW-WU_22F0h-9LoVDFOd-7" style="edgeStyle=orthogonalEdgeStyle;rounded=0;orthogonalLoop=1;jettySize=auto;html=1;exitX=0.5;exitY=1;exitDx=0;exitDy=0;entryX=0.5;entryY=0;entryDx=0;entryDy=0;" edge="1" parent="1" source="XW-WU_22F0h-9LoVDFOd-3" target="XW-WU_22F0h-9LoVDFOd-4">
          <mxGeometry relative="1" as="geometry" />
        </mxCell>
        <mxCell id="XW-WU_22F0h-9LoVDFOd-3" value="Ausfahrt" style="rounded=1;whiteSpace=wrap;html=1;" vertex="1" parent="1">
          <mxGeometry x="345" y="294" width="120" height="60" as="geometry" />
        </mxCell>
        <mxCell id="XW-WU_22F0h-9LoVDFOd-18" style="edgeStyle=orthogonalEdgeStyle;rounded=0;orthogonalLoop=1;jettySize=auto;html=1;exitX=0.5;exitY=1;exitDx=0;exitDy=0;entryX=0.5;entryY=0;entryDx=0;entryDy=0;" edge="1" parent="1" source="XW-WU_22F0h-9LoVDFOd-4" target="XW-WU_22F0h-9LoVDFOd-5">
          <mxGeometry relative="1" as="geometry" />
        </mxCell>
        <mxCell id="XW-WU_22F0h-9LoVDFOd-4" value="Drehung" style="rounded=1;whiteSpace=wrap;html=1;" vertex="1" parent="1">
          <mxGeometry x="345" y="428" width="120" height="60" as="geometry" />
        </mxCell>
        <mxCell id="XW-WU_22F0h-9LoVDFOd-19" style="edgeStyle=orthogonalEdgeStyle;rounded=0;orthogonalLoop=1;jettySize=auto;html=1;exitX=0.5;exitY=1;exitDx=0;exitDy=0;entryX=0.5;entryY=0;entryDx=0;entryDy=0;" edge="1" parent="1" source="XW-WU_22F0h-9LoVDFOd-5" target="XW-WU_22F0h-9LoVDFOd-17">
          <mxGeometry relative="1" as="geometry" />
        </mxCell>
        <mxCell id="XW-WU_22F0h-9LoVDFOd-5" value="Geradeausfahrt" style="rounded=1;whiteSpace=wrap;html=1;" vertex="1" parent="1">
          <mxGeometry x="345" y="520" width="120" height="60" as="geometry" />
        </mxCell>
        <mxCell id="XW-WU_22F0h-9LoVDFOd-6" value="Rückfahrt" style="rounded=1;whiteSpace=wrap;html=1;" vertex="1" parent="1">
          <mxGeometry x="345" y="838" width="120" height="60" as="geometry" />
        </mxCell>
        <mxCell id="XW-WU_22F0h-9LoVDFOd-8" value="[nach 5 - 10 Sekunden]" style="text;html=1;strokeColor=none;fillColor=none;align=center;verticalAlign=middle;whiteSpace=wrap;rounded=0;" vertex="1" parent="1">
          <mxGeometry x="410" y="374" width="70" height="40" as="geometry" />
        </mxCell>
        <mxCell id="XW-WU_22F0h-9LoVDFOd-9" value="Wegschreiber&lt;br&gt;&lt;font style=&quot;font-size: 8px;&quot;&gt;speichern der Wegabschnitte als Vektoren&lt;/font&gt;" style="rounded=1;whiteSpace=wrap;html=1;" vertex="1" parent="1">
          <mxGeometry x="160" y="470" width="120" height="60" as="geometry" />
        </mxCell>
        <mxCell id="XW-WU_22F0h-9LoVDFOd-11" value="" style="line;strokeWidth=4;fillColor=none;align=left;verticalAlign=middle;spacingTop=-1;spacingLeft=3;spacingRight=3;rotatable=0;labelPosition=right;points=[];portConstraint=eastwest;strokeColor=inherit;" vertex="1" parent="1">
          <mxGeometry x="160" y="251" width="330" height="8" as="geometry" />
        </mxCell>
        <mxCell id="XW-WU_22F0h-9LoVDFOd-12" value="" style="line;strokeWidth=4;fillColor=none;align=left;verticalAlign=middle;spacingTop=-1;spacingLeft=3;spacingRight=3;rotatable=0;labelPosition=right;points=[];portConstraint=eastwest;strokeColor=inherit;" vertex="1" parent="1">
          <mxGeometry x="155" y="782" width="330" height="8" as="geometry" />
        </mxCell>
        <mxCell id="XW-WU_22F0h-9LoVDFOd-13" style="edgeStyle=orthogonalEdgeStyle;rounded=0;orthogonalLoop=1;jettySize=auto;html=1;exitX=0.511;exitY=0.826;exitDx=0;exitDy=0;exitPerimeter=0;entryX=0.746;entryY=0.325;entryDx=0;entryDy=0;entryPerimeter=0;" edge="1" parent="1" source="XW-WU_22F0h-9LoVDFOd-1" target="XW-WU_22F0h-9LoVDFOd-11">
          <mxGeometry relative="1" as="geometry">
            <mxPoint x="410" y="255" as="targetPoint" />
            <Array as="points">
              <mxPoint x="407" y="237" />
              <mxPoint x="407" y="254" />
            </Array>
          </mxGeometry>
        </mxCell>
        <mxCell id="XW-WU_22F0h-9LoVDFOd-14" style="edgeStyle=orthogonalEdgeStyle;rounded=0;orthogonalLoop=1;jettySize=auto;html=1;exitX=0.744;exitY=0.581;exitDx=0;exitDy=0;entryX=0.5;entryY=0;entryDx=0;entryDy=0;exitPerimeter=0;" edge="1" parent="1">
          <mxGeometry relative="1" as="geometry">
            <mxPoint x="406.52" y="255.64800000000002" as="sourcePoint" />
            <mxPoint x="406.0000000000001" y="294" as="targetPoint" />
          </mxGeometry>
        </mxCell>
        <mxCell id="XW-WU_22F0h-9LoVDFOd-15" style="edgeStyle=orthogonalEdgeStyle;rounded=0;orthogonalLoop=1;jettySize=auto;html=1;entryX=0.5;entryY=0;entryDx=0;entryDy=0;" edge="1" parent="1" target="XW-WU_22F0h-9LoVDFOd-9">
          <mxGeometry relative="1" as="geometry">
            <mxPoint x="220" y="260" as="sourcePoint" />
            <Array as="points">
              <mxPoint x="220" y="259" />
            </Array>
          </mxGeometry>
        </mxCell>
        <mxCell id="XW-WU_22F0h-9LoVDFOd-16" style="edgeStyle=orthogonalEdgeStyle;rounded=0;orthogonalLoop=1;jettySize=auto;html=1;exitX=0.5;exitY=1;exitDx=0;exitDy=0;entryX=0.198;entryY=0.054;entryDx=0;entryDy=0;entryPerimeter=0;" edge="1" parent="1" source="XW-WU_22F0h-9LoVDFOd-9" target="XW-WU_22F0h-9LoVDFOd-12">
          <mxGeometry relative="1" as="geometry">
            <mxPoint x="220" y="729" as="targetPoint" />
            <Array as="points" />
          </mxGeometry>
        </mxCell>
        <mxCell id="XW-WU_22F0h-9LoVDFOd-24" value="" style="edgeStyle=orthogonalEdgeStyle;rounded=0;orthogonalLoop=1;jettySize=auto;html=1;entryX=0.5;entryY=0;entryDx=0;entryDy=0;" edge="1" parent="1" source="XW-WU_22F0h-9LoVDFOd-17" target="XW-WU_22F0h-9LoVDFOd-20">
          <mxGeometry relative="1" as="geometry" />
        </mxCell>
        <mxCell id="XW-WU_22F0h-9LoVDFOd-17" value="Zurücksetzen" style="rounded=1;whiteSpace=wrap;html=1;" vertex="1" parent="1">
          <mxGeometry x="346" y="611" width="120" height="59" as="geometry" />
        </mxCell>
        <mxCell id="XW-WU_22F0h-9LoVDFOd-21" style="edgeStyle=orthogonalEdgeStyle;rounded=0;orthogonalLoop=1;jettySize=auto;html=1;exitX=1;exitY=0.5;exitDx=0;exitDy=0;entryX=1;entryY=0.5;entryDx=0;entryDy=0;" edge="1" parent="1" source="XW-WU_22F0h-9LoVDFOd-20" target="XW-WU_22F0h-9LoVDFOd-4">
          <mxGeometry relative="1" as="geometry">
            <Array as="points">
              <mxPoint x="500" y="710" />
              <mxPoint x="500" y="458" />
            </Array>
          </mxGeometry>
        </mxCell>
        <mxCell id="XW-WU_22F0h-9LoVDFOd-20" value="" style="rhombus;whiteSpace=wrap;html=1;" vertex="1" parent="1">
          <mxGeometry x="391" y="695" width="30" height="30" as="geometry" />
        </mxCell>
        <mxCell id="XW-WU_22F0h-9LoVDFOd-22" value="Laufzeit &amp;lt; Zeitlimit" style="text;html=1;strokeColor=none;fillColor=none;align=center;verticalAlign=middle;whiteSpace=wrap;rounded=0;" vertex="1" parent="1">
          <mxGeometry x="510" y="671" width="60" height="30" as="geometry" />
        </mxCell>
        <mxCell id="XW-WU_22F0h-9LoVDFOd-23" value="Laufzeit &lt;svg style=&quot;vertical-align: -0.312ex;&quot; xmlns:xlink=&quot;http://www.w3.org/1999/xlink&quot; viewBox=&quot;0 -636 778 774&quot; role=&quot;img&quot; height=&quot;1.751ex&quot; width=&quot;1.76ex&quot; xmlns=&quot;http://www.w3.org/2000/svg&quot;&gt;&lt;defs&gt;&lt;path d=&quot;M83 616Q83 624 89 630T99 636Q107 636 253 568T543 431T687 361Q694 356 694 346T687 331Q685 329 395 192L107 56H101Q83 58 83 76Q83 77 83 79Q82 86 98 95Q117 105 248 167Q326 204 378 228L626 346L360 472Q291 505 200 548Q112 589 98 597T83 616ZM84 -118Q84 -108 99 -98H678Q694 -104 694 -118Q694 -130 679 -138H98Q84 -131 84 -118Z&quot; id=&quot;MJX-2-TEX-N-2265&quot;&gt;&lt;/path&gt;&lt;/defs&gt;&lt;g transform=&quot;scale(1,-1)&quot; stroke-width=&quot;0&quot; fill=&quot;currentColor&quot; stroke=&quot;currentColor&quot;&gt;&lt;g data-mml-node=&quot;math&quot;&gt;&lt;g data-mml-node=&quot;mo&quot;&gt;&lt;use xlink:href=&quot;#MJX-2-TEX-N-2265&quot; data-c=&quot;2265&quot;&gt;&lt;/use&gt;&lt;/g&gt;&lt;/g&gt;&lt;/g&gt;&lt;/svg&gt; Zeitlimit" style="text;html=1;strokeColor=none;fillColor=none;align=center;verticalAlign=middle;whiteSpace=wrap;rounded=0;" vertex="1" parent="1">
          <mxGeometry x="410" y="725" width="130" height="30" as="geometry" />
        </mxCell>
        <mxCell id="XW-WU_22F0h-9LoVDFOd-25" style="edgeStyle=orthogonalEdgeStyle;rounded=0;orthogonalLoop=1;jettySize=auto;html=1;exitX=0.5;exitY=1;exitDx=0;exitDy=0;entryX=0.759;entryY=0.606;entryDx=0;entryDy=0;entryPerimeter=0;" edge="1" parent="1" source="XW-WU_22F0h-9LoVDFOd-20" target="XW-WU_22F0h-9LoVDFOd-12">
          <mxGeometry relative="1" as="geometry">
            <Array as="points">
              <mxPoint x="406" y="753" />
              <mxPoint x="405" y="753" />
              <mxPoint x="405" y="787" />
            </Array>
          </mxGeometry>
        </mxCell>
        <mxCell id="XW-WU_22F0h-9LoVDFOd-26" style="edgeStyle=orthogonalEdgeStyle;rounded=0;orthogonalLoop=1;jettySize=auto;html=1;exitX=0.747;exitY=0.471;exitDx=0;exitDy=0;entryX=0.5;entryY=0;entryDx=0;entryDy=0;exitPerimeter=0;" edge="1" parent="1" source="XW-WU_22F0h-9LoVDFOd-12" target="XW-WU_22F0h-9LoVDFOd-6">
          <mxGeometry relative="1" as="geometry">
            <Array as="points">
              <mxPoint x="405" y="786" />
            </Array>
          </mxGeometry>
        </mxCell>
        <mxCell id="XW-WU_22F0h-9LoVDFOd-27" style="edgeStyle=orthogonalEdgeStyle;rounded=0;orthogonalLoop=1;jettySize=auto;html=1;entryX=0.517;entryY=-0.093;entryDx=0;entryDy=0;entryPerimeter=0;" edge="1" parent="1" source="XW-WU_22F0h-9LoVDFOd-6" target="y7L2XVppaXTwiacDeEOA-4">
          <mxGeometry relative="1" as="geometry" />
        </mxCell>
      </root>
    </mxGraphModel>
  </diagram>
</mxfile>
